<?xml version="1.0" encoding="utf-8"?>
<!-- Generator: Adobe Illustrator 15.1.0, SVG Export Plug-In  -->
<!DOCTYPE svg PUBLIC "-//W3C//DTD SVG 1.1//EN" "http://www.w3.org/Graphics/SVG/1.1/DTD/svg11.dtd" [
	<!ENTITY ns_flows "http://ns.adobe.com/Flows/1.0/">
]>
<svg version="1.1"
	 xmlns="http://www.w3.org/2000/svg" xmlns:xlink="http://www.w3.org/1999/xlink" xmlns:a="http://ns.adobe.com/AdobeSVGViewerExtensions/3.0/"
	 x="0px" y="0px" width="196px" height="191px" viewBox="0 0 196 191" overflow="visible" enable-background="new 0 0 196 191"
	 xml:space="preserve">
<defs>
</defs>
<line fill="none" stroke="#FFFFFF" stroke-width="2" stroke-miterlimit="10" x1="0" y1="22.718" x2="36" y2="22.718"/>
<line fill="#FFFFFF" stroke="#FFFFFF" stroke-width="2" stroke-miterlimit="10" x1="2" y1="56.718" x2="38" y2="56.718"/>
<path fill="#FFFFFF" stroke="#FFFFFF" stroke-width="0.1" stroke-miterlimit="10" d="M38.167,22.218
	c-4.691,0-9.128,0.534-13.185,1.443c0.168,0.003,0.334,0.009,0.493,0.025c0.152-0.013,0.301-0.031,0.462-0.031
	c0.226,0,0.441,0.015,0.651,0.039c0.194-0.021,0.391-0.039,0.599-0.039c0.159,0,0.312,0.011,0.463,0.022
	c0.135-0.01,0.27-0.022,0.412-0.022c0.132,0,0.246,0.026,0.372,0.035c0.203-0.022,0.411-0.035,0.628-0.035
	c0.234,0,0.457,0.017,0.673,0.042c0.048-0.001,0.09-0.011,0.139-0.011c0.131,0,0.256,0.011,0.382,0.019
	c0.338-0.067,0.692-0.113,1.076-0.113c0.136,0,0.266,0.011,0.396,0.02c2.077-0.24,4.214-0.394,6.438-0.394
	c18.013,0,32.667,7.402,32.667,16.5s-14.655,16.5-32.667,16.5c-3.142,0-6.144-0.263-9.005-0.696
	c-0.052-0.001-0.104-0.003-0.155-0.004c-0.084,0.006-0.168,0.013-0.256,0.013c-0.049,0-0.094-0.006-0.143-0.008
	c-0.273,0.042-0.556,0.07-0.857,0.07c-0.043,0-0.08-0.01-0.122-0.011c-0.279,0.044-0.569,0.073-0.878,0.073
	c-0.121,0-0.234-0.012-0.351-0.02c-0.131,0.009-0.262,0.02-0.399,0.02c-0.296,0-0.573-0.028-0.842-0.068
	c-0.236,0.036-0.478,0.063-0.737,0.065c4.2,0.992,8.837,1.565,13.746,1.565c18.564,0,33.667-7.851,33.667-17.5
	S56.731,22.218,38.167,22.218z"/>
<path fill="#FFFFFF" stroke="#FFFFFF" stroke-width="0.1" stroke-miterlimit="10" d="M38.167,21.718
	c-5.535,0-10.745,0.715-15.37,1.954c0.109-0.006,0.215-0.016,0.328-0.016c0.181,0,0.355,0.01,0.526,0.026
	c0.098-0.006,0.185-0.026,0.287-0.026c0.171,0,0.335,0.011,0.497,0.024c0.145-0.011,0.288-0.024,0.44-0.024
	c0.207,0,0.406,0.011,0.6,0.031c0.152-0.013,0.302-0.031,0.463-0.031c0.225,0,0.441,0.015,0.65,0.039
	c0.194-0.021,0.391-0.039,0.6-0.039c0.159,0,0.312,0.011,0.463,0.022c0.136-0.01,0.27-0.022,0.412-0.022
	c0.132,0,0.246,0.026,0.372,0.035c0.203-0.022,0.411-0.035,0.628-0.035c0.234,0,0.457,0.017,0.673,0.042
	c0.048-0.001,0.09-0.011,0.139-0.011c0.13,0,0.253,0.011,0.379,0.019c0.338-0.068,0.694-0.113,1.079-0.113
	c0.372,0,0.72,0.037,1.049,0.1c0.094-0.007,0.186-0.016,0.285-0.016c0.271,0,0.526,0.024,0.775,0.058
	c0.276-0.045,0.563-0.078,0.871-0.078c0.196,0,0.382,0.015,0.566,0.034c0.201-0.021,0.407-0.034,0.622-0.034
	c0.045,0,0.082,0.011,0.126,0.012c0.083-0.003,0.163-0.012,0.249-0.012c0.046,0,0.084,0.011,0.129,0.012
	c0.083-0.003,0.162-0.012,0.246-0.012c0.342,0,0.662,0.034,0.967,0.087c0.315-0.011,0.628-0.024,0.95-0.024
	c17.737,0,32.167,7.178,32.167,16s-14.43,16-32.167,16c-0.818,0-1.622-0.025-2.417-0.063c-1.65,0.015-3.299-0.045-4.948-0.094
	c-0.142,0.012-0.277,0.032-0.426,0.032c-0.278,0-0.539-0.025-0.793-0.062c-0.22-0.004-0.44-0.013-0.66-0.016
	c-0.058,0.005-0.111,0.015-0.172,0.015c-0.049,0-0.095-0.006-0.144-0.007c-0.273,0.042-0.555,0.07-0.856,0.07
	c-0.043,0-0.08-0.01-0.122-0.011c-0.279,0.044-0.569,0.073-0.878,0.073c-0.122,0-0.235-0.012-0.352-0.02
	c-0.131,0.009-0.261,0.02-0.398,0.02c-0.295,0-0.573-0.027-0.841-0.068c-0.25,0.039-0.507,0.068-0.784,0.068
	c-0.123,0-0.238-0.01-0.356-0.018c-0.09,0.006-0.175,0.018-0.269,0.018c-0.061,0-0.117-0.007-0.174-0.013
	c-0.283,0.045-0.576,0.075-0.889,0.075c-0.014,0-0.027-0.002-0.041-0.002c4.658,1.27,9.92,2.002,15.521,2.002
	c18.84,0,34.167-8.075,34.167-18S57.007,21.718,38.167,21.718z"/>
<path fill="#FFFFFF" stroke="#FFFFFF" stroke-width="0.5" stroke-miterlimit="10" d="M69.167,104.718
	c-18.564,0-33.667-7.851-33.667-17.5s15.103-17.5,33.667-17.5s33.667,7.851,33.667,17.5S87.731,104.718,69.167,104.718z
	 M69.167,70.718c-18.013,0-32.667,7.402-32.667,16.5s14.654,16.5,32.667,16.5s32.667-7.402,32.667-16.5S87.18,70.718,69.167,70.718z
	"/>
<line fill="#FFFFFF" stroke="#FFFFFF" stroke-width="2" stroke-miterlimit="10" x1="1" y1="22.718" x2="1" y2="95.718"/>
<text transform="matrix(1 0 0 1 73.334 55.2178)" fill="#FFFFFF" font-family="'Montserrat-Hairline'" font-size="65">age</text>
<line fill="none" stroke="#FFFFFF" stroke-miterlimit="10" x1="1.5" y1="21.718" x2="1.5" y2="59.718"/>
<text transform="matrix(1 0 0 1 106.834 103.7178)" fill="#FFFFFF" font-family="'Montserrat-Hairline'" font-size="62" letter-spacing="6">ne</text>
<line fill="#FFFFFF" stroke="#FFFFFF" stroke-width="2" stroke-miterlimit="10" x1="1" y1="103.718" x2="1" y2="86.718"/>
</svg>
